<svg width="99" height="65" viewBox="0 0 99 65" fill="none" xmlns="http://www.w3.org/2000/svg">
<path d="M16.024 40.672C16.024 38.4533 16.4827 36.48 17.4 34.752C18.3387 33.0027 19.6613 31.648 21.368 30.688C23.0747 29.7067 25.0373 29.216 27.256 29.216C30.072 29.216 32.44 29.9733 34.36 31.488C36.28 32.9813 37.5173 35.0187 38.072 37.6H31.32C30.9147 36.7467 30.3493 36.096 29.624 35.648C28.92 35.2 28.0987 34.976 27.16 34.976C25.7093 34.976 24.5467 35.4987 23.672 36.544C22.8187 37.568 22.392 38.944 22.392 40.672C22.392 42.4213 22.8187 43.8187 23.672 44.864C24.5467 45.888 25.7093 46.4 27.16 46.4C28.0987 46.4 28.92 46.176 29.624 45.728C30.3493 45.28 30.9147 44.6293 31.32 43.776H38.072C37.5173 46.3573 36.28 48.4053 34.36 49.92C32.44 51.4133 30.072 52.16 27.256 52.16C25.0373 52.16 23.0747 51.68 21.368 50.72C19.6613 49.7387 18.3387 48.384 17.4 46.656C16.4827 44.9067 16.024 42.912 16.024 40.672ZM61.234 29.44V52H54.962V42.944H47.314V52H41.042V29.44H47.314V37.92H54.962V29.44H61.234ZM71.0953 34.464V38.144H78.2953V42.912H71.0953V46.976H79.2553V52H64.8233V29.44H79.2553V34.464H71.0953ZM97.6505 29.44V34.432H88.6265V38.4H95.2825V43.168H88.6265V52H82.3545V29.44H97.6505Z" fill="#333333"/>
<path d="M0.968 16.212C1.232 14.6867 1.79667 13.33 2.662 12.142C3.52733 10.9393 4.61267 10.008 5.918 9.348C7.22333 8.67333 8.65333 8.336 10.208 8.336C12.1587 8.336 13.684 8.80533 14.784 9.744C15.8987 10.6827 16.4707 11.966 16.5 13.594H11.858C11.6967 13.1833 11.418 12.868 11.022 12.648C10.626 12.428 10.1273 12.318 9.526 12.318C8.45533 12.318 7.53867 12.67 6.776 13.374C6.028 14.078 5.55133 15.024 5.346 16.212C5.27267 16.652 5.236 17.0187 5.236 17.312C5.236 18.2947 5.51467 19.0427 6.072 19.556C6.62933 20.0547 7.45067 20.304 8.536 20.304C10.0467 20.304 11.2493 19.622 12.144 18.258H7.81L8.36 15.156H16.412L15.664 19.336C14.9013 20.6413 13.8087 21.7633 12.386 22.702C10.9633 23.6407 9.32067 24.11 7.458 24.11C6.07933 24.11 4.89133 23.8533 3.894 23.34C2.89667 22.812 2.134 22.0787 1.606 21.14C1.078 20.2013 0.814 19.116 0.814 17.884C0.814 17.2973 0.865333 16.74 0.968 16.212ZM22.5024 24.154C21.4317 24.154 20.4784 23.9413 19.6424 23.516C18.8211 23.0907 18.1831 22.4893 17.7284 21.712C17.2737 20.9347 17.0464 20.0253 17.0464 18.984C17.0464 17.576 17.3764 16.3 18.0364 15.156C18.7111 14.012 19.6351 13.1173 20.8084 12.472C21.9817 11.8267 23.2944 11.504 24.7464 11.504C25.8171 11.504 26.7631 11.7167 27.5844 12.142C28.4204 12.5673 29.0657 13.176 29.5204 13.968C29.9897 14.7453 30.2244 15.6547 30.2244 16.696C30.2244 18.1187 29.8871 19.402 29.2124 20.546C28.5377 21.6753 27.6137 22.5627 26.4404 23.208C25.2671 23.8387 23.9544 24.154 22.5024 24.154ZM23.1624 20.436C23.6757 20.436 24.1304 20.2747 24.5264 19.952C24.9371 19.6293 25.2451 19.2113 25.4504 18.698C25.6704 18.1847 25.7804 17.6567 25.7804 17.114C25.7804 16.498 25.6191 16.0287 25.2964 15.706C24.9884 15.3833 24.5851 15.222 24.0864 15.222C23.5584 15.222 23.0964 15.3833 22.7004 15.706C22.3191 16.0287 22.0184 16.4467 21.7984 16.96C21.5931 17.4733 21.4904 18.0087 21.4904 18.566C21.4904 19.182 21.6444 19.6513 21.9524 19.974C22.2604 20.282 22.6637 20.436 23.1624 20.436ZM36.4887 24.154C35.4181 24.154 34.4647 23.9413 33.6287 23.516C32.8074 23.0907 32.1694 22.4893 31.7147 21.712C31.2601 20.9347 31.0327 20.0253 31.0327 18.984C31.0327 17.576 31.3627 16.3 32.0227 15.156C32.6974 14.012 33.6214 13.1173 34.7947 12.472C35.9681 11.8267 37.2807 11.504 38.7327 11.504C39.8034 11.504 40.7494 11.7167 41.5707 12.142C42.4067 12.5673 43.0521 13.176 43.5067 13.968C43.9761 14.7453 44.2107 15.6547 44.2107 16.696C44.2107 18.1187 43.8734 19.402 43.1987 20.546C42.5241 21.6753 41.6001 22.5627 40.4267 23.208C39.2534 23.8387 37.9407 24.154 36.4887 24.154ZM37.1487 20.436C37.6621 20.436 38.1167 20.2747 38.5127 19.952C38.9234 19.6293 39.2314 19.2113 39.4367 18.698C39.6567 18.1847 39.7667 17.6567 39.7667 17.114C39.7667 16.498 39.6054 16.0287 39.2827 15.706C38.9747 15.3833 38.5714 15.222 38.0727 15.222C37.5447 15.222 37.0827 15.3833 36.6867 15.706C36.3054 16.0287 36.0047 16.4467 35.7847 16.96C35.5794 17.4733 35.4767 18.0087 35.4767 18.566C35.4767 19.182 35.6307 19.6513 35.9387 19.974C36.2467 20.282 36.6501 20.436 37.1487 20.436ZM45.129 17.818C45.3637 16.542 45.7964 15.4273 46.427 14.474C47.0577 13.5207 47.8204 12.7873 48.715 12.274C49.6097 11.7607 50.5484 11.504 51.531 11.504C52.323 11.504 52.9977 11.6727 53.555 12.01C54.127 12.3327 54.5377 12.78 54.787 13.352L55.777 7.72H60.111L57.229 24H52.895L53.225 22.284C52.785 22.856 52.2277 23.3107 51.553 23.648C50.8784 23.9853 50.123 24.154 49.287 24.154C47.9964 24.154 46.955 23.7287 46.163 22.878C45.3857 22.0127 44.997 20.8393 44.997 19.358C44.997 18.874 45.041 18.3607 45.129 17.818ZM54.017 17.818C54.061 17.598 54.083 17.3927 54.083 17.202C54.083 16.586 53.907 16.1093 53.555 15.772C53.2177 15.4347 52.7777 15.266 52.235 15.266C51.5897 15.266 51.0104 15.4933 50.497 15.948C49.9837 16.388 49.661 17.0113 49.529 17.818C49.485 18.038 49.463 18.2507 49.463 18.456C49.463 19.072 49.6317 19.5487 49.969 19.886C50.321 20.2233 50.7684 20.392 51.311 20.392C51.9564 20.392 52.5357 20.1647 53.049 19.71C53.5624 19.2553 53.885 18.6247 54.017 17.818Z" fill="#333333"/>
</svg>
