<svg width="100" height="46" viewBox="0 0 100 46" fill="none" xmlns="http://www.w3.org/2000/svg">
<path d="M15.7069 34.1087C15.7069 31.8122 16.1805 29.7696 17.1278 27.9809C18.0972 26.1702 19.463 24.768 21.2255 23.7743C22.9879 22.7585 25.0147 22.2506 27.3058 22.2506C30.2138 22.2506 32.6592 23.0345 34.6419 24.6023C36.6246 26.1481 37.9024 28.2569 38.4752 30.9289H31.5026C31.084 30.0456 30.5002 29.3721 29.7512 28.9084C29.0242 28.4446 28.176 28.2128 27.2067 28.2128C25.7086 28.2128 24.508 28.7538 23.6047 29.8358C22.7235 30.8958 22.2829 32.3201 22.2829 34.1087C22.2829 35.9195 22.7235 37.3659 23.6047 38.4479C24.508 39.5078 25.7086 40.0378 27.2067 40.0378C28.176 40.0378 29.0242 39.8059 29.7512 39.3422C30.5002 38.8785 31.084 38.205 31.5026 37.3217H38.4752C37.9024 39.9936 36.6246 42.1135 34.6419 43.6814C32.6592 45.2271 30.2138 46 27.3058 46C25.0147 46 22.9879 45.5032 21.2255 44.5095C19.463 43.4937 18.0972 42.0915 17.1278 40.3028C16.1805 38.4921 15.7069 36.4274 15.7069 34.1087Z" fill="white"/>
<path d="M62.3938 22.4824V45.8344H55.9169V36.4605H48.0191V45.8344H41.5422V22.4824H48.0191V31.2601H55.9169V22.4824H62.3938Z" fill="white"/>
<path d="M72.5772 27.6828V31.492H80.0125V36.4274H72.5772V40.634H81.0038V45.8344H66.1003V22.4824H81.0038V27.6828H72.5772Z" fill="white"/>
<path d="M100 22.4824V27.6497H90.6812V31.757H97.5546V36.6923H90.6812V45.8344H84.2043V22.4824H100Z" fill="white"/>
<path d="M0.159031 8.7901C0.431655 7.21122 1.01477 5.80693 1.90837 4.57723C2.80197 3.33234 3.92276 2.36832 5.27074 1.68515C6.61872 0.986799 8.09543 0.637624 9.70089 0.637624C11.7153 0.637624 13.2904 1.12343 14.4264 2.09505C15.5775 3.06667 16.1681 4.39505 16.1984 6.0802H11.4048C11.2382 5.65511 10.9504 5.32871 10.5415 5.10099C10.1325 4.87327 9.61759 4.75941 8.99661 4.75941C7.89096 4.75941 6.94435 5.12376 6.15677 5.85248C5.38433 6.58119 4.8921 7.5604 4.68005 8.7901C4.60433 9.24555 4.56646 9.62508 4.56646 9.92871C4.56646 10.9459 4.85423 11.7201 5.42977 12.2515C6.00531 12.7677 6.85348 13.0257 7.97427 13.0257C9.53428 13.0257 10.7762 12.3198 11.7001 10.9079H7.22455L7.79252 7.69703H16.1076L15.3351 12.0238C14.5475 13.3749 13.4192 14.5363 11.95 15.5079C10.4809 16.4795 8.78457 16.9653 6.86105 16.9653C5.43734 16.9653 4.21053 16.6997 3.18062 16.1683C2.1507 15.6218 1.36312 14.8627 0.817874 13.8911C0.272624 12.9195 0 11.796 0 10.5208C0 9.91353 0.0530103 9.33663 0.159031 8.7901Z" fill="white"/>
<path d="M22.3969 17.0109C21.2913 17.0109 20.3068 16.7908 19.4435 16.3505C18.5953 15.9102 17.9365 15.2878 17.467 14.4832C16.9974 13.6785 16.7627 12.7373 16.7627 11.6594C16.7627 10.202 17.1035 8.88119 17.785 7.69703C18.4817 6.51287 19.4359 5.5868 20.6476 4.91881C21.8592 4.25082 23.2148 3.91683 24.7142 3.91683C25.8199 3.91683 26.7968 4.13696 27.6449 4.57723C28.5083 5.01749 29.1747 5.64752 29.6442 6.46733C30.1289 7.27195 30.3712 8.2132 30.3712 9.29109C30.3712 10.7637 30.0228 12.0921 29.3261 13.2762C28.6294 14.4452 27.6752 15.3637 26.4636 16.0317C25.2519 16.6845 23.8964 17.0109 22.3969 17.0109ZM23.0785 13.1624C23.6086 13.1624 24.0781 12.9954 24.487 12.6614C24.9111 12.3274 25.2292 11.8947 25.4412 11.3634C25.6684 10.832 25.782 10.2855 25.782 9.72376C25.782 9.08614 25.6154 8.60033 25.2822 8.26634C24.9641 7.93234 24.5476 7.76535 24.0327 7.76535C23.4874 7.76535 23.0103 7.93234 22.6014 8.26634C22.2076 8.60033 21.8971 9.033 21.6699 9.56436C21.4579 10.0957 21.3519 10.6498 21.3519 11.2267C21.3519 11.8644 21.5109 12.3502 21.829 12.6842C22.147 13.003 22.5635 13.1624 23.0785 13.1624Z" fill="white"/>
<path d="M36.8402 17.0109C35.7345 17.0109 34.75 16.7908 33.8867 16.3505C33.0386 15.9102 32.3797 15.2878 31.9102 14.4832C31.4407 13.6785 31.2059 12.7373 31.2059 11.6594C31.2059 10.202 31.5467 8.88119 32.2283 7.69703C32.925 6.51287 33.8792 5.5868 35.0908 4.91881C36.3025 4.25082 37.658 3.91683 39.1575 3.91683C40.2631 3.91683 41.24 4.13696 42.0882 4.57723C42.9515 5.01749 43.6179 5.64752 44.0874 6.46733C44.5721 7.27195 44.8144 8.2132 44.8144 9.29109C44.8144 10.7637 44.4661 12.0921 43.7694 13.2762C43.0727 14.4452 42.1185 15.3637 40.9068 16.0317C39.6951 16.6845 38.3396 17.0109 36.8402 17.0109ZM37.5217 13.1624C38.0518 13.1624 38.5213 12.9954 38.9303 12.6614C39.3544 12.3274 39.6724 11.8947 39.8845 11.3634C40.1117 10.832 40.2252 10.2855 40.2252 9.72376C40.2252 9.08614 40.0586 8.60033 39.7254 8.26634C39.4074 7.93234 38.9909 7.76535 38.4759 7.76535C37.9307 7.76535 37.4536 7.93234 37.0446 8.26634C36.6508 8.60033 36.3403 9.033 36.1132 9.56436C35.9011 10.0957 35.7951 10.6498 35.7951 11.2267C35.7951 11.8644 35.9541 12.3502 36.2722 12.6842C36.5903 13.003 37.0068 13.1624 37.5217 13.1624Z" fill="white"/>
<path d="M45.7628 10.4525C46.0051 9.13168 46.4519 7.97789 47.1032 6.99109C47.7544 6.00429 48.542 5.24521 49.4659 4.71386C50.3898 4.18251 51.3591 3.91683 52.3739 3.91683C53.1918 3.91683 53.8885 4.09142 54.464 4.44059C55.0547 4.77459 55.4788 5.23762 55.7363 5.8297L56.7586 0H61.2342L58.258 16.8515H53.7825L54.1232 15.0752C53.6689 15.6673 53.0933 16.138 52.3966 16.4871C51.6999 16.8363 50.9199 17.0109 50.0566 17.0109C48.7238 17.0109 47.6484 16.5706 46.8305 15.6901C46.0278 14.7944 45.6264 13.5799 45.6264 12.0465C45.6264 11.5455 45.6719 11.0142 45.7628 10.4525ZM54.9411 10.4525C54.9865 10.2248 55.0093 10.0122 55.0093 9.81485C55.0093 9.17723 54.8275 8.68383 54.464 8.33465C54.1157 7.98548 53.6613 7.81089 53.1009 7.81089C52.4345 7.81089 51.8362 8.0462 51.3061 8.51683C50.776 8.97228 50.4428 9.61749 50.3065 10.4525C50.2611 10.6802 50.2383 10.9003 50.2383 11.1129C50.2383 11.7505 50.4125 12.2439 50.7609 12.5931C51.1244 12.9422 51.5863 13.1168 52.1467 13.1168C52.8131 13.1168 53.4114 12.8815 53.9415 12.4109C54.4716 11.9403 54.8048 11.2875 54.9411 10.4525Z" fill="white"/>
</svg>
