<svg width="427" height="261" viewBox="0 0 427 261" fill="none" xmlns="http://www.w3.org/2000/svg">
<ellipse cx="138.5" cy="130.5" rx="138.5" ry="130.5" fill="#9EB384"/>
<path d="M77.8125 93.7188L76.6875 101.25C76.2917 103.812 75.6354 106.281 74.7188 108.656C73.8021 111.01 72.5833 113.094 71.0625 114.906C69.5417 116.719 67.6979 118.146 65.5312 119.188C63.3646 120.208 60.8542 120.688 58 120.625C55.2708 120.562 52.9896 119.979 51.1562 118.875C49.3438 117.771 47.9271 116.302 46.9062 114.469C45.8854 112.635 45.2188 110.583 44.9062 108.312C44.6146 106.021 44.6146 103.688 44.9062 101.312L46.0312 93.75C46.4271 91.1667 47.0833 88.6875 48 86.3125C48.9167 83.9167 50.1354 81.7708 51.6562 79.875C53.1979 77.9792 55.0625 76.4896 57.25 75.4062C59.4375 74.3021 61.9792 73.7917 64.875 73.875C67.6458 73.9375 69.9375 74.5521 71.75 75.7188C73.5625 76.8854 74.9688 78.4271 75.9688 80.3438C76.9688 82.2396 77.6042 84.3542 77.875 86.6875C78.1458 89 78.125 91.3438 77.8125 93.7188ZM67.8438 101.312L68.9375 93.5938C69.0833 92.5312 69.1875 91.3333 69.25 90C69.3333 88.6458 69.2604 87.3333 69.0312 86.0625C68.8021 84.7708 68.3229 83.6979 67.5938 82.8438C66.8646 81.9896 65.7396 81.5312 64.2188 81.4688C62.5521 81.3854 61.1562 81.7188 60.0312 82.4688C58.9271 83.2188 58.0312 84.2292 57.3438 85.5C56.6562 86.75 56.125 88.0938 55.75 89.5312C55.3958 90.9688 55.1146 92.3438 54.9062 93.6562L53.8438 101.344C53.6979 102.427 53.5938 103.625 53.5312 104.938C53.4688 106.25 53.5625 107.521 53.8125 108.75C54.0833 109.958 54.5833 110.969 55.3125 111.781C56.0625 112.573 57.1979 113 58.7188 113.062C60.3229 113.146 61.6667 112.833 62.75 112.125C63.8333 111.396 64.7188 110.438 65.4062 109.25C66.0938 108.062 66.625 106.771 67 105.375C67.375 103.958 67.6562 102.604 67.8438 101.312ZM92.3125 93.875L87.7812 120H79.1562L85.0312 86.1875H93.0938L92.3125 93.875ZM89.6562 101.938L87.6875 102.062C87.8333 100.271 88.1667 98.4062 88.6875 96.4688C89.2083 94.5104 89.9583 92.6875 90.9375 91C91.9375 89.3125 93.1979 87.9688 94.7188 86.9688C96.2396 85.9479 98.1042 85.4688 100.312 85.5312C102.062 85.5938 103.438 86.0312 104.438 86.8438C105.458 87.6562 106.198 88.7188 106.656 90.0312C107.135 91.3229 107.406 92.7083 107.469 94.1875C107.531 95.6458 107.49 97.0833 107.344 98.5L103.75 120H95.2188L98.7812 98.4062C98.8646 97.5521 98.8854 96.7083 98.8438 95.875C98.8229 95.0208 98.6042 94.3021 98.1875 93.7188C97.7917 93.1354 97.0521 92.8438 95.9688 92.8438C94.8438 92.7812 93.9062 93.0625 93.1562 93.6875C92.4062 94.3125 91.7917 95.1146 91.3125 96.0938C90.8542 97.0521 90.4896 98.0521 90.2188 99.0938C89.9688 100.135 89.7812 101.083 89.6562 101.938ZM140.438 112.219L142.938 96.5312C143 95.9271 143.01 95.3125 142.969 94.6875C142.927 94.0625 142.75 93.5312 142.438 93.0938C142.146 92.6354 141.615 92.3958 140.844 92.375C140.01 92.3542 139.344 92.5312 138.844 92.9062C138.344 93.2812 137.958 93.7708 137.688 94.375C137.417 94.9792 137.219 95.6146 137.094 96.2812L128.531 96.3438C128.635 94.6354 129.062 93.1146 129.812 91.7812C130.583 90.4271 131.573 89.2812 132.781 88.3438C133.99 87.4062 135.344 86.6979 136.844 86.2188C138.365 85.7396 139.938 85.5104 141.562 85.5312C143.812 85.5729 145.719 86.0625 147.281 87C148.844 87.9375 149.99 89.2292 150.719 90.875C151.448 92.5208 151.698 94.4688 151.469 96.7188L149.062 111.812C148.875 113.042 148.708 114.323 148.562 115.656C148.438 116.969 148.583 118.24 149 119.469L148.969 120L140.625 120.031C140.25 118.76 140.083 117.469 140.125 116.156C140.167 114.823 140.271 113.51 140.438 112.219ZM143.719 99.3438L142.844 104.594L140.062 104.562C139.25 104.583 138.5 104.74 137.812 105.031C137.146 105.302 136.542 105.698 136 106.219C135.479 106.719 135.052 107.302 134.719 107.969C134.406 108.615 134.208 109.344 134.125 110.156C134.042 110.698 134.031 111.25 134.094 111.812C134.177 112.354 134.375 112.812 134.688 113.188C135.021 113.562 135.521 113.76 136.188 113.781C136.917 113.781 137.635 113.635 138.344 113.344C139.052 113.031 139.646 112.594 140.125 112.031C140.604 111.469 140.885 110.812 140.969 110.062L142.531 113.562C142.177 114.5 141.729 115.406 141.188 116.281C140.667 117.135 140.042 117.906 139.312 118.594C138.604 119.26 137.792 119.781 136.875 120.156C135.979 120.531 134.958 120.708 133.812 120.688C132 120.667 130.438 120.198 129.125 119.281C127.833 118.344 126.865 117.135 126.219 115.656C125.573 114.177 125.292 112.552 125.375 110.781C125.458 108.781 125.917 107.062 126.75 105.625C127.583 104.167 128.656 102.969 129.969 102.031C131.302 101.094 132.812 100.406 134.5 99.9688C136.208 99.5312 137.99 99.3125 139.844 99.3125L143.719 99.3438ZM168.656 86.1875L162.781 120H154.219L160.094 86.1875H168.656ZM161.219 77.5938C161.198 76.2396 161.625 75.0938 162.5 74.1562C163.375 73.2188 164.51 72.7396 165.906 72.7188C167.219 72.6979 168.312 73.1146 169.188 73.9688C170.062 74.8229 170.49 75.9167 170.469 77.25C170.51 78.6042 170.094 79.75 169.219 80.6875C168.365 81.625 167.24 82.1042 165.844 82.125C164.531 82.1667 163.438 81.7604 162.562 80.9062C161.688 80.0312 161.24 78.9271 161.219 77.5938ZM182.594 93.6562L178.031 120H169.469L175.344 86.1875H183.375L182.594 93.6562ZM180.031 101.938L177.781 102.031C177.969 100.219 178.323 98.3333 178.844 96.375C179.385 94.4167 180.135 92.6042 181.094 90.9375C182.073 89.2708 183.333 87.9375 184.875 86.9375C186.417 85.9375 188.302 85.4688 190.531 85.5312C192.156 85.5729 193.438 85.9688 194.375 86.7188C195.333 87.4688 196.052 88.4375 196.531 89.625C197.01 90.8125 197.302 92.0938 197.406 93.4688C197.51 94.8229 197.49 96.1458 197.344 97.4375L193.625 120H185.094L188.656 98.4688C188.74 97.7188 188.781 96.9062 188.781 96.0312C188.781 95.1562 188.594 94.4167 188.219 93.8125C187.844 93.1875 187.135 92.8438 186.094 92.7812C185.01 92.7604 184.094 93.0625 183.344 93.6875C182.594 94.2917 182 95.0833 181.562 96.0625C181.125 97.0417 180.781 98.0625 180.531 99.125C180.302 100.167 180.135 101.104 180.031 101.938ZM196.125 101.062L193.281 101.531C193.427 99.7812 193.74 97.9688 194.219 96.0938C194.698 94.1979 195.417 92.4479 196.375 90.8438C197.333 89.2188 198.552 87.9167 200.031 86.9375C201.531 85.9583 203.365 85.4896 205.531 85.5312C207.281 85.5729 208.677 86 209.719 86.8125C210.76 87.6042 211.521 88.6458 212 89.9375C212.5 91.2292 212.792 92.6146 212.875 94.0938C212.958 95.5729 212.927 97.0208 212.781 98.4375L209.188 120H200.594L204.156 98.4375C204.24 97.6875 204.281 96.8854 204.281 96.0312C204.281 95.1562 204.094 94.4167 203.719 93.8125C203.365 93.1875 202.667 92.8646 201.625 92.8438C200.625 92.8229 199.802 93.0938 199.156 93.6562C198.51 94.1979 197.979 94.9062 197.562 95.7812C197.146 96.6562 196.823 97.5625 196.594 98.5C196.385 99.4375 196.229 100.292 196.125 101.062ZM229.219 120.625C226.969 120.583 225.042 120.146 223.438 119.312C221.833 118.479 220.552 117.344 219.594 115.906C218.635 114.448 217.979 112.802 217.625 110.969C217.271 109.115 217.198 107.135 217.406 105.031L217.719 102.25C218.01 100.083 218.521 97.9896 219.25 95.9688C219.979 93.9479 220.958 92.1458 222.188 90.5625C223.438 88.9583 224.969 87.7083 226.781 86.8125C228.594 85.9167 230.719 85.4896 233.156 85.5312C235.49 85.5938 237.375 86.1146 238.812 87.0938C240.271 88.0521 241.365 89.3229 242.094 90.9062C242.844 92.4896 243.302 94.25 243.469 96.1875C243.635 98.1042 243.594 100.042 243.344 102L242.781 106H220.75L221.844 99.8438L235.188 99.875L235.344 99C235.49 98.125 235.542 97.2188 235.5 96.2812C235.458 95.3229 235.208 94.5208 234.75 93.875C234.292 93.2083 233.5 92.8438 232.375 92.7812C231.146 92.7188 230.146 93 229.375 93.625C228.625 94.2292 228.042 95.0312 227.625 96.0312C227.208 97.0312 226.906 98.0833 226.719 99.1875C226.552 100.271 226.417 101.292 226.312 102.25L225.969 105.062C225.865 106 225.823 106.948 225.844 107.906C225.865 108.844 225.99 109.719 226.219 110.531C226.469 111.344 226.906 112.01 227.531 112.531C228.177 113.052 229.094 113.323 230.281 113.344C231.74 113.385 233.083 113.115 234.312 112.531C235.562 111.948 236.729 111.198 237.812 110.281L240.719 115.625C239.844 116.792 238.781 117.76 237.531 118.531C236.281 119.281 234.927 119.823 233.469 120.156C232.031 120.49 230.615 120.646 229.219 120.625ZM59.1875 147L50.8438 195H42.2812L50.5938 147H59.1875ZM73.6562 147L72.9375 151.781C72.7083 153.281 72.2917 154.729 71.6875 156.125C71.0833 157.521 70.3333 158.844 69.4375 160.094C68.5625 161.344 67.5833 162.479 66.5 163.5L62.375 160.906C63.2083 159.448 63.9583 157.99 64.625 156.531C65.3125 155.052 65.8125 153.49 66.125 151.844L66.9688 147H73.6562ZM68.75 179.25L69.0312 177C69.2604 174.875 69.75 172.823 70.5 170.844C71.2708 168.865 72.2917 167.083 73.5625 165.5C74.8542 163.917 76.4062 162.688 78.2188 161.812C80.0521 160.917 82.1562 160.5 84.5312 160.562C86.8646 160.604 88.7812 161.104 90.2812 162.062C91.8021 163.021 92.9896 164.292 93.8438 165.875C94.6979 167.438 95.25 169.188 95.5 171.125C95.7708 173.042 95.8021 174.99 95.5938 176.969L95.3438 179.219C95.0729 181.365 94.5625 183.427 93.8125 185.406C93.0625 187.385 92.0417 189.156 90.75 190.719C89.4792 192.281 87.9271 193.51 86.0938 194.406C84.2812 195.281 82.1875 195.688 79.8125 195.625C77.5 195.583 75.5833 195.083 74.0625 194.125C72.5625 193.167 71.3854 191.906 70.5312 190.344C69.6771 188.781 69.1146 187.042 68.8438 185.125C68.5729 183.188 68.5417 181.229 68.75 179.25ZM77.625 176.969L77.375 179.312C77.3125 179.979 77.25 180.812 77.1875 181.812C77.125 182.792 77.1667 183.781 77.3125 184.781C77.4583 185.781 77.7812 186.625 78.2812 187.312C78.7812 187.979 79.5521 188.333 80.5938 188.375C81.7604 188.458 82.7292 188.198 83.5 187.594C84.2917 186.969 84.9062 186.167 85.3438 185.188C85.7812 184.208 86.1146 183.188 86.3438 182.125C86.5729 181.042 86.7396 180.062 86.8438 179.188L87.0625 176.906C87.1042 176.26 87.1458 175.438 87.1875 174.438C87.25 173.417 87.2083 172.417 87.0625 171.438C86.9167 170.438 86.5833 169.594 86.0625 168.906C85.5625 168.219 84.8021 167.844 83.7812 167.781C82.6354 167.719 81.6875 168 80.9375 168.625C80.2083 169.25 79.6146 170.052 79.1562 171.031C78.6979 171.99 78.3542 173.01 78.125 174.094C77.8958 175.177 77.7292 176.135 77.625 176.969ZM110.812 169.188L106.344 195H97.8125L103.688 161.188H111.75L110.812 169.188ZM119.781 160.906L118.625 169.625C118.167 169.521 117.698 169.448 117.219 169.406C116.76 169.344 116.312 169.312 115.875 169.312C114.771 169.292 113.823 169.469 113.031 169.844C112.26 170.219 111.615 170.75 111.094 171.438C110.573 172.104 110.135 172.865 109.781 173.719C109.448 174.573 109.188 175.458 109 176.375L107.5 175.75C107.667 174.438 107.927 172.906 108.281 171.156C108.656 169.406 109.188 167.719 109.875 166.094C110.583 164.469 111.521 163.125 112.688 162.062C113.854 161 115.323 160.469 117.094 160.469C117.573 160.49 118.021 160.542 118.438 160.625C118.875 160.708 119.323 160.802 119.781 160.906ZM133.219 161.188L127.344 195H118.781L124.656 161.188H133.219ZM125.781 152.594C125.76 151.24 126.188 150.094 127.062 149.156C127.938 148.219 129.073 147.74 130.469 147.719C131.781 147.698 132.875 148.115 133.75 148.969C134.625 149.823 135.052 150.917 135.031 152.25C135.073 153.604 134.656 154.75 133.781 155.688C132.927 156.625 131.802 157.104 130.406 157.125C129.094 157.167 128 156.76 127.125 155.906C126.25 155.031 125.802 153.927 125.781 152.594ZM157.062 161.188H164.875L159.125 194.969C158.75 197.802 157.885 200.229 156.531 202.25C155.198 204.292 153.448 205.833 151.281 206.875C149.135 207.938 146.604 208.438 143.688 208.375C142.458 208.312 141.24 208.125 140.031 207.812C138.844 207.521 137.698 207.073 136.594 206.469C135.51 205.865 134.542 205.146 133.688 204.312L137.25 198.281C138.062 199.219 139.042 199.948 140.188 200.469C141.333 201.01 142.521 201.302 143.75 201.344C145.146 201.385 146.302 201.146 147.219 200.625C148.156 200.104 148.885 199.365 149.406 198.406C149.948 197.469 150.323 196.354 150.531 195.062L155 168.594L157.062 161.188ZM135.75 179.5L136 177.25C136.208 175.354 136.594 173.417 137.156 171.438C137.74 169.458 138.542 167.625 139.562 165.938C140.583 164.25 141.885 162.917 143.469 161.938C145.073 160.938 147.021 160.479 149.312 160.562C151.333 160.625 152.906 161.198 154.031 162.281C155.177 163.365 156 164.74 156.5 166.406C157 168.052 157.302 169.792 157.406 171.625C157.51 173.438 157.5 175.115 157.375 176.656L156.969 179.906C156.698 181.469 156.26 183.167 155.656 185C155.073 186.833 154.292 188.573 153.312 190.219C152.333 191.865 151.135 193.198 149.719 194.219C148.302 195.24 146.604 195.729 144.625 195.688C142.5 195.625 140.802 195.073 139.531 194.031C138.281 192.99 137.354 191.656 136.75 190.031C136.167 188.385 135.812 186.635 135.688 184.781C135.562 182.927 135.583 181.167 135.75 179.5ZM144.594 177.031L144.344 179.344C144.281 180.094 144.219 180.979 144.156 182C144.115 183 144.156 183.979 144.281 184.938C144.427 185.875 144.76 186.667 145.281 187.312C145.823 187.938 146.646 188.271 147.75 188.312C149.104 188.375 150.219 188.052 151.094 187.344C151.99 186.635 152.667 185.74 153.125 184.656C153.583 183.552 153.917 182.427 154.125 181.281L154.969 175.312C155.01 174.542 155.01 173.74 154.969 172.906C154.927 172.073 154.792 171.281 154.562 170.531C154.354 169.781 153.969 169.167 153.406 168.688C152.844 168.188 152.083 167.917 151.125 167.875C149.896 167.792 148.875 168.052 148.062 168.656C147.271 169.24 146.635 170.01 146.156 170.969C145.698 171.906 145.344 172.927 145.094 174.031C144.865 175.115 144.698 176.115 144.594 177.031ZM180.094 161.188L174.219 195H165.656L171.531 161.188H180.094ZM172.656 152.594C172.635 151.24 173.062 150.094 173.938 149.156C174.812 148.219 175.948 147.74 177.344 147.719C178.656 147.698 179.75 148.115 180.625 148.969C181.5 149.823 181.927 150.917 181.906 152.25C181.948 153.604 181.531 154.75 180.656 155.688C179.802 156.625 178.677 157.104 177.281 157.125C175.969 157.167 174.875 156.76 174 155.906C173.125 155.031 172.677 153.927 172.656 152.594ZM193.812 168.875L189.281 195H180.656L186.531 161.188H194.594L193.812 168.875ZM191.156 176.938L189.188 177.062C189.333 175.271 189.667 173.406 190.188 171.469C190.708 169.51 191.458 167.688 192.438 166C193.438 164.312 194.698 162.969 196.219 161.969C197.74 160.948 199.604 160.469 201.812 160.531C203.562 160.594 204.938 161.031 205.938 161.844C206.958 162.656 207.698 163.719 208.156 165.031C208.635 166.323 208.906 167.708 208.969 169.188C209.031 170.646 208.99 172.083 208.844 173.5L205.25 195H196.719L200.281 173.406C200.365 172.552 200.385 171.708 200.344 170.875C200.323 170.021 200.104 169.302 199.688 168.719C199.292 168.135 198.552 167.844 197.469 167.844C196.344 167.781 195.406 168.062 194.656 168.688C193.906 169.312 193.292 170.115 192.812 171.094C192.354 172.052 191.99 173.052 191.719 174.094C191.469 175.135 191.281 176.083 191.156 176.938ZM227.312 187.219L229.812 171.531C229.875 170.927 229.885 170.312 229.844 169.688C229.802 169.062 229.625 168.531 229.312 168.094C229.021 167.635 228.49 167.396 227.719 167.375C226.885 167.354 226.219 167.531 225.719 167.906C225.219 168.281 224.833 168.771 224.562 169.375C224.292 169.979 224.094 170.615 223.969 171.281L215.406 171.344C215.51 169.635 215.938 168.115 216.688 166.781C217.458 165.427 218.448 164.281 219.656 163.344C220.865 162.406 222.219 161.698 223.719 161.219C225.24 160.74 226.812 160.51 228.438 160.531C230.688 160.573 232.594 161.062 234.156 162C235.719 162.938 236.865 164.229 237.594 165.875C238.323 167.521 238.573 169.469 238.344 171.719L235.938 186.812C235.75 188.042 235.583 189.323 235.438 190.656C235.312 191.969 235.458 193.24 235.875 194.469L235.844 195L227.5 195.031C227.125 193.76 226.958 192.469 227 191.156C227.042 189.823 227.146 188.51 227.312 187.219ZM230.594 174.344L229.719 179.594L226.938 179.562C226.125 179.583 225.375 179.74 224.688 180.031C224.021 180.302 223.417 180.698 222.875 181.219C222.354 181.719 221.927 182.302 221.594 182.969C221.281 183.615 221.083 184.344 221 185.156C220.917 185.698 220.906 186.25 220.969 186.812C221.052 187.354 221.25 187.812 221.562 188.188C221.896 188.562 222.396 188.76 223.062 188.781C223.792 188.781 224.51 188.635 225.219 188.344C225.927 188.031 226.521 187.594 227 187.031C227.479 186.469 227.76 185.812 227.844 185.062L229.406 188.562C229.052 189.5 228.604 190.406 228.062 191.281C227.542 192.135 226.917 192.906 226.188 193.594C225.479 194.26 224.667 194.781 223.75 195.156C222.854 195.531 221.833 195.708 220.688 195.688C218.875 195.667 217.312 195.198 216 194.281C214.708 193.344 213.74 192.135 213.094 190.656C212.448 189.177 212.167 187.552 212.25 185.781C212.333 183.781 212.792 182.062 213.625 180.625C214.458 179.167 215.531 177.969 216.844 177.031C218.177 176.094 219.688 175.406 221.375 174.969C223.083 174.531 224.865 174.312 226.719 174.312L230.594 174.344ZM258 147L249.656 195H241.094L249.406 147H258ZM271.156 161.188L265.281 195H256.719L262.594 161.188H271.156ZM263.719 152.594C263.698 151.24 264.125 150.094 265 149.156C265.875 148.219 267.01 147.74 268.406 147.719C269.719 147.698 270.812 148.115 271.688 148.969C272.562 149.823 272.99 150.917 272.969 152.25C273.01 153.604 272.594 154.75 271.719 155.688C270.865 156.625 269.74 157.104 268.344 157.125C267.031 157.167 265.938 156.76 265.062 155.906C264.188 155.031 263.74 153.927 263.719 152.594ZM292.188 161.188L291 167.781H274.219L275.406 161.188H292.188ZM280.719 152.844H289.219L283.781 184.75C283.719 185.312 283.688 185.844 283.688 186.344C283.688 186.844 283.802 187.26 284.031 187.594C284.281 187.927 284.74 188.104 285.406 188.125C285.76 188.125 286.104 188.104 286.438 188.062C286.792 188.021 287.146 187.969 287.5 187.906L286.812 194.812C286.083 195.083 285.344 195.281 284.594 195.406C283.844 195.531 283.073 195.583 282.281 195.562C280.344 195.542 278.833 195.062 277.75 194.125C276.667 193.167 275.927 191.948 275.531 190.469C275.135 188.969 275.021 187.354 275.188 185.625L280.719 152.844ZM304.719 195.625C302.469 195.583 300.542 195.146 298.938 194.312C297.333 193.479 296.052 192.344 295.094 190.906C294.135 189.448 293.479 187.802 293.125 185.969C292.771 184.115 292.698 182.135 292.906 180.031L293.219 177.25C293.51 175.083 294.021 172.99 294.75 170.969C295.479 168.948 296.458 167.146 297.688 165.562C298.938 163.958 300.469 162.708 302.281 161.812C304.094 160.917 306.219 160.49 308.656 160.531C310.99 160.594 312.875 161.115 314.312 162.094C315.771 163.052 316.865 164.323 317.594 165.906C318.344 167.49 318.802 169.25 318.969 171.188C319.135 173.104 319.094 175.042 318.844 177L318.281 181H296.25L297.344 174.844L310.688 174.875L310.844 174C310.99 173.125 311.042 172.219 311 171.281C310.958 170.323 310.708 169.521 310.25 168.875C309.792 168.208 309 167.844 307.875 167.781C306.646 167.719 305.646 168 304.875 168.625C304.125 169.229 303.542 170.031 303.125 171.031C302.708 172.031 302.406 173.083 302.219 174.188C302.052 175.271 301.917 176.292 301.812 177.25L301.469 180.062C301.365 181 301.323 181.948 301.344 182.906C301.365 183.844 301.49 184.719 301.719 185.531C301.969 186.344 302.406 187.01 303.031 187.531C303.677 188.052 304.594 188.323 305.781 188.344C307.24 188.385 308.583 188.115 309.812 187.531C311.062 186.948 312.229 186.198 313.312 185.281L316.219 190.625C315.344 191.792 314.281 192.76 313.031 193.531C311.781 194.281 310.427 194.823 308.969 195.156C307.531 195.49 306.115 195.646 304.719 195.625ZM304.125 156.625L311.625 146.969H321.719L311.812 156.625H304.125ZM353 149.5L346.531 181H339.469L343.906 149.5H353ZM336.656 190.906C336.635 189.552 337.052 188.385 337.906 187.406C338.781 186.427 339.906 185.917 341.281 185.875C342.656 185.854 343.771 186.302 344.625 187.219C345.5 188.135 345.938 189.25 345.938 190.562C345.958 191.917 345.531 193.083 344.656 194.062C343.802 195.042 342.667 195.542 341.25 195.562C339.938 195.583 338.844 195.146 337.969 194.25C337.094 193.333 336.656 192.219 336.656 190.906Z" fill="white" fill-opacity="0.3"/>
<path d="M72.8125 88.7188L71.6875 96.25C71.2917 98.8125 70.6354 101.281 69.7188 103.656C68.8021 106.01 67.5833 108.094 66.0625 109.906C64.5417 111.719 62.6979 113.146 60.5312 114.188C58.3646 115.208 55.8542 115.688 53 115.625C50.2708 115.562 47.9896 114.979 46.1562 113.875C44.3438 112.771 42.9271 111.302 41.9062 109.469C40.8854 107.635 40.2188 105.583 39.9062 103.312C39.6146 101.021 39.6146 98.6875 39.9062 96.3125L41.0312 88.75C41.4271 86.1667 42.0833 83.6875 43 81.3125C43.9167 78.9167 45.1354 76.7708 46.6562 74.875C48.1979 72.9792 50.0625 71.4896 52.25 70.4062C54.4375 69.3021 56.9792 68.7917 59.875 68.875C62.6458 68.9375 64.9375 69.5521 66.75 70.7188C68.5625 71.8854 69.9688 73.4271 70.9688 75.3438C71.9688 77.2396 72.6042 79.3542 72.875 81.6875C73.1458 84 73.125 86.3438 72.8125 88.7188ZM62.8438 96.3125L63.9375 88.5938C64.0833 87.5312 64.1875 86.3333 64.25 85C64.3333 83.6458 64.2604 82.3333 64.0312 81.0625C63.8021 79.7708 63.3229 78.6979 62.5938 77.8438C61.8646 76.9896 60.7396 76.5312 59.2188 76.4688C57.5521 76.3854 56.1562 76.7188 55.0312 77.4688C53.9271 78.2188 53.0312 79.2292 52.3438 80.5C51.6562 81.75 51.125 83.0938 50.75 84.5312C50.3958 85.9688 50.1146 87.3438 49.9062 88.6562L48.8438 96.3438C48.6979 97.4271 48.5938 98.625 48.5312 99.9375C48.4688 101.25 48.5625 102.521 48.8125 103.75C49.0833 104.958 49.5833 105.969 50.3125 106.781C51.0625 107.573 52.1979 108 53.7188 108.062C55.3229 108.146 56.6667 107.833 57.75 107.125C58.8333 106.396 59.7188 105.438 60.4062 104.25C61.0938 103.062 61.625 101.771 62 100.375C62.375 98.9583 62.6562 97.6042 62.8438 96.3125ZM87.3125 88.875L82.7812 115H74.1562L80.0312 81.1875H88.0938L87.3125 88.875ZM84.6562 96.9375L82.6875 97.0625C82.8333 95.2708 83.1667 93.4062 83.6875 91.4688C84.2083 89.5104 84.9583 87.6875 85.9375 86C86.9375 84.3125 88.1979 82.9688 89.7188 81.9688C91.2396 80.9479 93.1042 80.4688 95.3125 80.5312C97.0625 80.5938 98.4375 81.0312 99.4375 81.8438C100.458 82.6562 101.198 83.7188 101.656 85.0312C102.135 86.3229 102.406 87.7083 102.469 89.1875C102.531 90.6458 102.49 92.0833 102.344 93.5L98.75 115H90.2188L93.7812 93.4062C93.8646 92.5521 93.8854 91.7083 93.8438 90.875C93.8229 90.0208 93.6042 89.3021 93.1875 88.7188C92.7917 88.1354 92.0521 87.8438 90.9688 87.8438C89.8438 87.7812 88.9062 88.0625 88.1562 88.6875C87.4062 89.3125 86.7917 90.1146 86.3125 91.0938C85.8542 92.0521 85.4896 93.0521 85.2188 94.0938C84.9688 95.1354 84.7812 96.0833 84.6562 96.9375ZM135.438 107.219L137.938 91.5312C138 90.9271 138.01 90.3125 137.969 89.6875C137.927 89.0625 137.75 88.5312 137.438 88.0938C137.146 87.6354 136.615 87.3958 135.844 87.375C135.01 87.3542 134.344 87.5312 133.844 87.9062C133.344 88.2812 132.958 88.7708 132.688 89.375C132.417 89.9792 132.219 90.6146 132.094 91.2812L123.531 91.3438C123.635 89.6354 124.062 88.1146 124.812 86.7812C125.583 85.4271 126.573 84.2812 127.781 83.3438C128.99 82.4062 130.344 81.6979 131.844 81.2188C133.365 80.7396 134.938 80.5104 136.562 80.5312C138.812 80.5729 140.719 81.0625 142.281 82C143.844 82.9375 144.99 84.2292 145.719 85.875C146.448 87.5208 146.698 89.4688 146.469 91.7188L144.062 106.812C143.875 108.042 143.708 109.323 143.562 110.656C143.438 111.969 143.583 113.24 144 114.469L143.969 115L135.625 115.031C135.25 113.76 135.083 112.469 135.125 111.156C135.167 109.823 135.271 108.51 135.438 107.219ZM138.719 94.3438L137.844 99.5938L135.062 99.5625C134.25 99.5833 133.5 99.7396 132.812 100.031C132.146 100.302 131.542 100.698 131 101.219C130.479 101.719 130.052 102.302 129.719 102.969C129.406 103.615 129.208 104.344 129.125 105.156C129.042 105.698 129.031 106.25 129.094 106.812C129.177 107.354 129.375 107.812 129.688 108.188C130.021 108.562 130.521 108.76 131.188 108.781C131.917 108.781 132.635 108.635 133.344 108.344C134.052 108.031 134.646 107.594 135.125 107.031C135.604 106.469 135.885 105.812 135.969 105.062L137.531 108.562C137.177 109.5 136.729 110.406 136.188 111.281C135.667 112.135 135.042 112.906 134.312 113.594C133.604 114.26 132.792 114.781 131.875 115.156C130.979 115.531 129.958 115.708 128.812 115.688C127 115.667 125.438 115.198 124.125 114.281C122.833 113.344 121.865 112.135 121.219 110.656C120.573 109.177 120.292 107.552 120.375 105.781C120.458 103.781 120.917 102.062 121.75 100.625C122.583 99.1667 123.656 97.9688 124.969 97.0312C126.302 96.0938 127.812 95.4062 129.5 94.9688C131.208 94.5312 132.99 94.3125 134.844 94.3125L138.719 94.3438ZM163.656 81.1875L157.781 115H149.219L155.094 81.1875H163.656ZM156.219 72.5938C156.198 71.2396 156.625 70.0938 157.5 69.1562C158.375 68.2188 159.51 67.7396 160.906 67.7188C162.219 67.6979 163.312 68.1146 164.188 68.9688C165.062 69.8229 165.49 70.9167 165.469 72.25C165.51 73.6042 165.094 74.75 164.219 75.6875C163.365 76.625 162.24 77.1042 160.844 77.125C159.531 77.1667 158.438 76.7604 157.562 75.9062C156.688 75.0312 156.24 73.9271 156.219 72.5938ZM177.594 88.6562L173.031 115H164.469L170.344 81.1875H178.375L177.594 88.6562ZM175.031 96.9375L172.781 97.0312C172.969 95.2188 173.323 93.3333 173.844 91.375C174.385 89.4167 175.135 87.6042 176.094 85.9375C177.073 84.2708 178.333 82.9375 179.875 81.9375C181.417 80.9375 183.302 80.4688 185.531 80.5312C187.156 80.5729 188.438 80.9688 189.375 81.7188C190.333 82.4688 191.052 83.4375 191.531 84.625C192.01 85.8125 192.302 87.0938 192.406 88.4688C192.51 89.8229 192.49 91.1458 192.344 92.4375L188.625 115H180.094L183.656 93.4688C183.74 92.7188 183.781 91.9062 183.781 91.0312C183.781 90.1562 183.594 89.4167 183.219 88.8125C182.844 88.1875 182.135 87.8438 181.094 87.7812C180.01 87.7604 179.094 88.0625 178.344 88.6875C177.594 89.2917 177 90.0833 176.562 91.0625C176.125 92.0417 175.781 93.0625 175.531 94.125C175.302 95.1667 175.135 96.1042 175.031 96.9375ZM191.125 96.0625L188.281 96.5312C188.427 94.7812 188.74 92.9688 189.219 91.0938C189.698 89.1979 190.417 87.4479 191.375 85.8438C192.333 84.2188 193.552 82.9167 195.031 81.9375C196.531 80.9583 198.365 80.4896 200.531 80.5312C202.281 80.5729 203.677 81 204.719 81.8125C205.76 82.6042 206.521 83.6458 207 84.9375C207.5 86.2292 207.792 87.6146 207.875 89.0938C207.958 90.5729 207.927 92.0208 207.781 93.4375L204.188 115H195.594L199.156 93.4375C199.24 92.6875 199.281 91.8854 199.281 91.0312C199.281 90.1562 199.094 89.4167 198.719 88.8125C198.365 88.1875 197.667 87.8646 196.625 87.8438C195.625 87.8229 194.802 88.0938 194.156 88.6562C193.51 89.1979 192.979 89.9062 192.562 90.7812C192.146 91.6562 191.823 92.5625 191.594 93.5C191.385 94.4375 191.229 95.2917 191.125 96.0625ZM224.219 115.625C221.969 115.583 220.042 115.146 218.438 114.312C216.833 113.479 215.552 112.344 214.594 110.906C213.635 109.448 212.979 107.802 212.625 105.969C212.271 104.115 212.198 102.135 212.406 100.031L212.719 97.25C213.01 95.0833 213.521 92.9896 214.25 90.9688C214.979 88.9479 215.958 87.1458 217.188 85.5625C218.438 83.9583 219.969 82.7083 221.781 81.8125C223.594 80.9167 225.719 80.4896 228.156 80.5312C230.49 80.5938 232.375 81.1146 233.812 82.0938C235.271 83.0521 236.365 84.3229 237.094 85.9062C237.844 87.4896 238.302 89.25 238.469 91.1875C238.635 93.1042 238.594 95.0417 238.344 97L237.781 101H215.75L216.844 94.8438L230.188 94.875L230.344 94C230.49 93.125 230.542 92.2188 230.5 91.2812C230.458 90.3229 230.208 89.5208 229.75 88.875C229.292 88.2083 228.5 87.8438 227.375 87.7812C226.146 87.7188 225.146 88 224.375 88.625C223.625 89.2292 223.042 90.0312 222.625 91.0312C222.208 92.0312 221.906 93.0833 221.719 94.1875C221.552 95.2708 221.417 96.2917 221.312 97.25L220.969 100.062C220.865 101 220.823 101.948 220.844 102.906C220.865 103.844 220.99 104.719 221.219 105.531C221.469 106.344 221.906 107.01 222.531 107.531C223.177 108.052 224.094 108.323 225.281 108.344C226.74 108.385 228.083 108.115 229.312 107.531C230.562 106.948 231.729 106.198 232.812 105.281L235.719 110.625C234.844 111.792 233.781 112.76 232.531 113.531C231.281 114.281 229.927 114.823 228.469 115.156C227.031 115.49 225.615 115.646 224.219 115.625ZM54.1875 142L45.8438 190H37.2812L45.5938 142H54.1875ZM68.6562 142L67.9375 146.781C67.7083 148.281 67.2917 149.729 66.6875 151.125C66.0833 152.521 65.3333 153.844 64.4375 155.094C63.5625 156.344 62.5833 157.479 61.5 158.5L57.375 155.906C58.2083 154.448 58.9583 152.99 59.625 151.531C60.3125 150.052 60.8125 148.49 61.125 146.844L61.9688 142H68.6562ZM63.75 174.25L64.0312 172C64.2604 169.875 64.75 167.823 65.5 165.844C66.2708 163.865 67.2917 162.083 68.5625 160.5C69.8542 158.917 71.4062 157.688 73.2188 156.812C75.0521 155.917 77.1562 155.5 79.5312 155.562C81.8646 155.604 83.7812 156.104 85.2812 157.062C86.8021 158.021 87.9896 159.292 88.8438 160.875C89.6979 162.438 90.25 164.188 90.5 166.125C90.7708 168.042 90.8021 169.99 90.5938 171.969L90.3438 174.219C90.0729 176.365 89.5625 178.427 88.8125 180.406C88.0625 182.385 87.0417 184.156 85.75 185.719C84.4792 187.281 82.9271 188.51 81.0938 189.406C79.2812 190.281 77.1875 190.688 74.8125 190.625C72.5 190.583 70.5833 190.083 69.0625 189.125C67.5625 188.167 66.3854 186.906 65.5312 185.344C64.6771 183.781 64.1146 182.042 63.8438 180.125C63.5729 178.188 63.5417 176.229 63.75 174.25ZM72.625 171.969L72.375 174.312C72.3125 174.979 72.25 175.812 72.1875 176.812C72.125 177.792 72.1667 178.781 72.3125 179.781C72.4583 180.781 72.7812 181.625 73.2812 182.312C73.7812 182.979 74.5521 183.333 75.5938 183.375C76.7604 183.458 77.7292 183.198 78.5 182.594C79.2917 181.969 79.9062 181.167 80.3438 180.188C80.7812 179.208 81.1146 178.188 81.3438 177.125C81.5729 176.042 81.7396 175.062 81.8438 174.188L82.0625 171.906C82.1042 171.26 82.1458 170.438 82.1875 169.438C82.25 168.417 82.2083 167.417 82.0625 166.438C81.9167 165.438 81.5833 164.594 81.0625 163.906C80.5625 163.219 79.8021 162.844 78.7812 162.781C77.6354 162.719 76.6875 163 75.9375 163.625C75.2083 164.25 74.6146 165.052 74.1562 166.031C73.6979 166.99 73.3542 168.01 73.125 169.094C72.8958 170.177 72.7292 171.135 72.625 171.969ZM105.812 164.188L101.344 190H92.8125L98.6875 156.188H106.75L105.812 164.188ZM114.781 155.906L113.625 164.625C113.167 164.521 112.698 164.448 112.219 164.406C111.76 164.344 111.312 164.312 110.875 164.312C109.771 164.292 108.823 164.469 108.031 164.844C107.26 165.219 106.615 165.75 106.094 166.438C105.573 167.104 105.135 167.865 104.781 168.719C104.448 169.573 104.188 170.458 104 171.375L102.5 170.75C102.667 169.438 102.927 167.906 103.281 166.156C103.656 164.406 104.188 162.719 104.875 161.094C105.583 159.469 106.521 158.125 107.688 157.062C108.854 156 110.323 155.469 112.094 155.469C112.573 155.49 113.021 155.542 113.438 155.625C113.875 155.708 114.323 155.802 114.781 155.906ZM128.219 156.188L122.344 190H113.781L119.656 156.188H128.219ZM120.781 147.594C120.76 146.24 121.188 145.094 122.062 144.156C122.938 143.219 124.073 142.74 125.469 142.719C126.781 142.698 127.875 143.115 128.75 143.969C129.625 144.823 130.052 145.917 130.031 147.25C130.073 148.604 129.656 149.75 128.781 150.688C127.927 151.625 126.802 152.104 125.406 152.125C124.094 152.167 123 151.76 122.125 150.906C121.25 150.031 120.802 148.927 120.781 147.594ZM152.062 156.188H159.875L154.125 189.969C153.75 192.802 152.885 195.229 151.531 197.25C150.198 199.292 148.448 200.833 146.281 201.875C144.135 202.938 141.604 203.438 138.688 203.375C137.458 203.312 136.24 203.125 135.031 202.812C133.844 202.521 132.698 202.073 131.594 201.469C130.51 200.865 129.542 200.146 128.688 199.312L132.25 193.281C133.062 194.219 134.042 194.948 135.188 195.469C136.333 196.01 137.521 196.302 138.75 196.344C140.146 196.385 141.302 196.146 142.219 195.625C143.156 195.104 143.885 194.365 144.406 193.406C144.948 192.469 145.323 191.354 145.531 190.062L150 163.594L152.062 156.188ZM130.75 174.5L131 172.25C131.208 170.354 131.594 168.417 132.156 166.438C132.74 164.458 133.542 162.625 134.562 160.938C135.583 159.25 136.885 157.917 138.469 156.938C140.073 155.938 142.021 155.479 144.312 155.562C146.333 155.625 147.906 156.198 149.031 157.281C150.177 158.365 151 159.74 151.5 161.406C152 163.052 152.302 164.792 152.406 166.625C152.51 168.438 152.5 170.115 152.375 171.656L151.969 174.906C151.698 176.469 151.26 178.167 150.656 180C150.073 181.833 149.292 183.573 148.312 185.219C147.333 186.865 146.135 188.198 144.719 189.219C143.302 190.24 141.604 190.729 139.625 190.688C137.5 190.625 135.802 190.073 134.531 189.031C133.281 187.99 132.354 186.656 131.75 185.031C131.167 183.385 130.812 181.635 130.688 179.781C130.562 177.927 130.583 176.167 130.75 174.5ZM139.594 172.031L139.344 174.344C139.281 175.094 139.219 175.979 139.156 177C139.115 178 139.156 178.979 139.281 179.938C139.427 180.875 139.76 181.667 140.281 182.312C140.823 182.938 141.646 183.271 142.75 183.312C144.104 183.375 145.219 183.052 146.094 182.344C146.99 181.635 147.667 180.74 148.125 179.656C148.583 178.552 148.917 177.427 149.125 176.281L149.969 170.312C150.01 169.542 150.01 168.74 149.969 167.906C149.927 167.073 149.792 166.281 149.562 165.531C149.354 164.781 148.969 164.167 148.406 163.688C147.844 163.188 147.083 162.917 146.125 162.875C144.896 162.792 143.875 163.052 143.062 163.656C142.271 164.24 141.635 165.01 141.156 165.969C140.698 166.906 140.344 167.927 140.094 169.031C139.865 170.115 139.698 171.115 139.594 172.031ZM175.094 156.188L169.219 190H160.656L166.531 156.188H175.094ZM167.656 147.594C167.635 146.24 168.062 145.094 168.938 144.156C169.812 143.219 170.948 142.74 172.344 142.719C173.656 142.698 174.75 143.115 175.625 143.969C176.5 144.823 176.927 145.917 176.906 147.25C176.948 148.604 176.531 149.75 175.656 150.688C174.802 151.625 173.677 152.104 172.281 152.125C170.969 152.167 169.875 151.76 169 150.906C168.125 150.031 167.677 148.927 167.656 147.594ZM188.812 163.875L184.281 190H175.656L181.531 156.188H189.594L188.812 163.875ZM186.156 171.938L184.188 172.062C184.333 170.271 184.667 168.406 185.188 166.469C185.708 164.51 186.458 162.688 187.438 161C188.438 159.312 189.698 157.969 191.219 156.969C192.74 155.948 194.604 155.469 196.812 155.531C198.562 155.594 199.938 156.031 200.938 156.844C201.958 157.656 202.698 158.719 203.156 160.031C203.635 161.323 203.906 162.708 203.969 164.188C204.031 165.646 203.99 167.083 203.844 168.5L200.25 190H191.719L195.281 168.406C195.365 167.552 195.385 166.708 195.344 165.875C195.323 165.021 195.104 164.302 194.688 163.719C194.292 163.135 193.552 162.844 192.469 162.844C191.344 162.781 190.406 163.062 189.656 163.688C188.906 164.312 188.292 165.115 187.812 166.094C187.354 167.052 186.99 168.052 186.719 169.094C186.469 170.135 186.281 171.083 186.156 171.938ZM222.312 182.219L224.812 166.531C224.875 165.927 224.885 165.312 224.844 164.688C224.802 164.062 224.625 163.531 224.312 163.094C224.021 162.635 223.49 162.396 222.719 162.375C221.885 162.354 221.219 162.531 220.719 162.906C220.219 163.281 219.833 163.771 219.562 164.375C219.292 164.979 219.094 165.615 218.969 166.281L210.406 166.344C210.51 164.635 210.938 163.115 211.688 161.781C212.458 160.427 213.448 159.281 214.656 158.344C215.865 157.406 217.219 156.698 218.719 156.219C220.24 155.74 221.812 155.51 223.438 155.531C225.688 155.573 227.594 156.062 229.156 157C230.719 157.938 231.865 159.229 232.594 160.875C233.323 162.521 233.573 164.469 233.344 166.719L230.938 181.812C230.75 183.042 230.583 184.323 230.438 185.656C230.312 186.969 230.458 188.24 230.875 189.469L230.844 190L222.5 190.031C222.125 188.76 221.958 187.469 222 186.156C222.042 184.823 222.146 183.51 222.312 182.219ZM225.594 169.344L224.719 174.594L221.938 174.562C221.125 174.583 220.375 174.74 219.688 175.031C219.021 175.302 218.417 175.698 217.875 176.219C217.354 176.719 216.927 177.302 216.594 177.969C216.281 178.615 216.083 179.344 216 180.156C215.917 180.698 215.906 181.25 215.969 181.812C216.052 182.354 216.25 182.812 216.562 183.188C216.896 183.562 217.396 183.76 218.062 183.781C218.792 183.781 219.51 183.635 220.219 183.344C220.927 183.031 221.521 182.594 222 182.031C222.479 181.469 222.76 180.812 222.844 180.062L224.406 183.562C224.052 184.5 223.604 185.406 223.062 186.281C222.542 187.135 221.917 187.906 221.188 188.594C220.479 189.26 219.667 189.781 218.75 190.156C217.854 190.531 216.833 190.708 215.688 190.688C213.875 190.667 212.312 190.198 211 189.281C209.708 188.344 208.74 187.135 208.094 185.656C207.448 184.177 207.167 182.552 207.25 180.781C207.333 178.781 207.792 177.062 208.625 175.625C209.458 174.167 210.531 172.969 211.844 172.031C213.177 171.094 214.688 170.406 216.375 169.969C218.083 169.531 219.865 169.312 221.719 169.312L225.594 169.344ZM253 142L244.656 190H236.094L244.406 142H253ZM266.156 156.188L260.281 190H251.719L257.594 156.188H266.156ZM258.719 147.594C258.698 146.24 259.125 145.094 260 144.156C260.875 143.219 262.01 142.74 263.406 142.719C264.719 142.698 265.812 143.115 266.688 143.969C267.562 144.823 267.99 145.917 267.969 147.25C268.01 148.604 267.594 149.75 266.719 150.688C265.865 151.625 264.74 152.104 263.344 152.125C262.031 152.167 260.938 151.76 260.062 150.906C259.188 150.031 258.74 148.927 258.719 147.594ZM287.188 156.188L286 162.781H269.219L270.406 156.188H287.188ZM275.719 147.844H284.219L278.781 179.75C278.719 180.312 278.688 180.844 278.688 181.344C278.688 181.844 278.802 182.26 279.031 182.594C279.281 182.927 279.74 183.104 280.406 183.125C280.76 183.125 281.104 183.104 281.438 183.062C281.792 183.021 282.146 182.969 282.5 182.906L281.812 189.812C281.083 190.083 280.344 190.281 279.594 190.406C278.844 190.531 278.073 190.583 277.281 190.562C275.344 190.542 273.833 190.062 272.75 189.125C271.667 188.167 270.927 186.948 270.531 185.469C270.135 183.969 270.021 182.354 270.188 180.625L275.719 147.844ZM299.719 190.625C297.469 190.583 295.542 190.146 293.938 189.312C292.333 188.479 291.052 187.344 290.094 185.906C289.135 184.448 288.479 182.802 288.125 180.969C287.771 179.115 287.698 177.135 287.906 175.031L288.219 172.25C288.51 170.083 289.021 167.99 289.75 165.969C290.479 163.948 291.458 162.146 292.688 160.562C293.938 158.958 295.469 157.708 297.281 156.812C299.094 155.917 301.219 155.49 303.656 155.531C305.99 155.594 307.875 156.115 309.312 157.094C310.771 158.052 311.865 159.323 312.594 160.906C313.344 162.49 313.802 164.25 313.969 166.188C314.135 168.104 314.094 170.042 313.844 172L313.281 176H291.25L292.344 169.844L305.688 169.875L305.844 169C305.99 168.125 306.042 167.219 306 166.281C305.958 165.323 305.708 164.521 305.25 163.875C304.792 163.208 304 162.844 302.875 162.781C301.646 162.719 300.646 163 299.875 163.625C299.125 164.229 298.542 165.031 298.125 166.031C297.708 167.031 297.406 168.083 297.219 169.188C297.052 170.271 296.917 171.292 296.812 172.25L296.469 175.062C296.365 176 296.323 176.948 296.344 177.906C296.365 178.844 296.49 179.719 296.719 180.531C296.969 181.344 297.406 182.01 298.031 182.531C298.677 183.052 299.594 183.323 300.781 183.344C302.24 183.385 303.583 183.115 304.812 182.531C306.062 181.948 307.229 181.198 308.312 180.281L311.219 185.625C310.344 186.792 309.281 187.76 308.031 188.531C306.781 189.281 305.427 189.823 303.969 190.156C302.531 190.49 301.115 190.646 299.719 190.625ZM299.125 151.625L306.625 141.969H316.719L306.812 151.625H299.125ZM348 144.5L341.531 176H334.469L338.906 144.5H348ZM331.656 185.906C331.635 184.552 332.052 183.385 332.906 182.406C333.781 181.427 334.906 180.917 336.281 180.875C337.656 180.854 338.771 181.302 339.625 182.219C340.5 183.135 340.938 184.25 340.938 185.562C340.958 186.917 340.531 188.083 339.656 189.062C338.802 190.042 337.667 190.542 336.25 190.562C334.938 190.583 333.844 190.146 332.969 189.25C332.094 188.333 331.656 187.219 331.656 185.906Z" fill="#333333"/>
</svg>
